# xmcd CD database file
#
# Track frame offsets:
#	150
#	133395
#	155920
#	209297
#	250673
#	267160
#
# Disc length: 3917 seconds
#
# Revision: 0
# Processed by: cddbd v1.5.2PL0 Copyright (c) Steve Scherf et al.
# Submitted via: CDex 1.51
#
DISCID=580f4b06
DTITLE=Mengelberg, Misha - Termos, Paul - Paul Termos Sessions - Volume I
DYEAR=2002
DGENRE=Jazz
TTITLE0=Dag Paul hallo Misha
TTITLE1=Koekoek
TTITLE2=Hallo Misha dag Paul
TTITLE3=bokkenrijder and I've told every little star
TTITLE4=Rumboom
TTITLE5=Trapeze
EXTD=YEAR: 2002
EXTT0=
EXTT1=
EXTT2=
EXTT3=
EXTT4=
EXTT5=
PLAYORDER=
